<?xml version="1.0"?>
<svg xmlns="http://www.w3.org/2000/svg" xmlns:xlink="http://www.w3.org/1999/xlink" version="1.1" viewBox="0 0 192 192" width="48px" height="48px"><g fill="none" fill-rule="nonzero" stroke="none" stroke-width="1" stroke-linecap="butt" stroke-linejoin="miter" stroke-miterlimit="10" stroke-dasharray="" stroke-dashoffset="0" font-family="none" font-weight="none" font-size="none" text-anchor="none" style="mix-blend-mode: normal"><path d="M0,192v-192h192v192z" fill="none"/><g id="Layer_1"><path d="M168,148c0,11.048 -8.952,20 -20,20h-104c-11.044,0 -20,-8.952 -20,-20v-104c0,-11.048 8.956,-20 20,-20h104c11.048,0 20,8.952 20,20z" fill="#333333"/><path d="M132.12,102.4c-2.6,-3.6 -6.36,-6.08 -11.2,-7.4c0,0 4.08,-1.48 7.76,-7c2.2,-3.52 3.32,-7.76 3.32,-12.72c0,-8.6 -3.12,-15.2 -9.36,-19.72c-6.24,-4.52 -13.28,-7.56 -25.24,-7.56h-37.4v96h41.72c11.32,-0.08 19.84,-2.52 25.64,-7.2c5.76,-4.76 8.64,-11.8 8.64,-21.2c0,-5.2 -1.28,-9.6 -3.88,-13.2zM84,64c0,0 16.68,0 17,0c6.08,0 11,4.92 11,11c0,6.08 -4.92,11 -11,11c-0.32,0 -17,0 -17,0zM104,128h-20v-24h20c6.64,0 12,5.36 12,12c0,6.64 -5.36,12 -12,12z" fill="#ffffff"/></g></g></svg>
