<?xml version="1.0"?>
<svg xmlns="http://www.w3.org/2000/svg" xmlns:xlink="http://www.w3.org/1999/xlink" version="1.1" viewBox="0 0 192 192" width="48px" height="48px"><g fill="none" fill-rule="nonzero" stroke="none" stroke-width="1" stroke-linecap="butt" stroke-linejoin="miter" stroke-miterlimit="10" stroke-dasharray="" stroke-dashoffset="0" font-family="none" font-weight="none" font-size="none" text-anchor="none" style="mix-blend-mode: normal"><path d="M0,192v-192h192v192z" fill="none"/><g id="Layer_1"><path d="M95.732,8l-83.732,29.14l13.232,108.492l70.588,38.368l70.952,-38.888l13.228,-108.488z" fill="#bdbdbd"/><path d="M171.272,42.108l-75.272,-25.568v158.24l63.328,-34.712z" fill="#333333"/><path d="M95.764,16.46l-75.04,26.116l11.948,97.996l63.132,34.312l0.196,-0.104v-158.24z" fill="#666666"/><path d="M96,23.984v38.032l34.312,73.984h17.636z" fill="#bdbdbd"/><path d="M44.052,136h17.636l34.312,-73.984v-38.032z" fill="#eeeeee"/><rect x="24" y="24" transform="scale(4,4)" width="6" height="4" fill="#bdbdbd"/><rect x="18" y="24" transform="scale(4,4)" width="6" height="4" fill="#eeeeee"/></g></g></svg>
